<svg width="200" height="200" viewBox="0 0 200 200" fill="none" xmlns="http://www.w3.org/2000/svg">
<g clip-path="url(#clip0_27_3)">
<path d="M88.6273 137C95.043 137 100.25 131.4 100.25 124.5V112H88.6273C82.2116 112 77.0046 117.6 77.0046 124.5C77.0046 131.4 82.2116 137 88.6273 137Z" fill="#0ACF83"/>
<path d="M77.0046 99.5C77.0046 92.6 82.2116 87 88.6273 87H100.25V112H88.6273C82.2116 112 77.0046 106.4 77.0046 99.5Z" fill="#A259FF"/>
<path d="M77.0046 74.5C77.0046 67.6 82.2116 62 88.6273 62H100.25V87H88.6273C82.2116 87 77.0046 81.4 77.0046 74.5Z" fill="#F24E1E"/>
<path d="M100.25 62H111.873C118.288 62 123.495 67.6 123.495 74.5C123.495 81.4 118.288 87 111.873 87H100.25V62Z" fill="#FF7262"/>
<path d="M123.495 99.5C123.495 106.4 118.288 112 111.873 112C105.457 112 100.25 106.4 100.25 99.5C100.25 92.6 105.457 87 111.873 87C118.288 87 123.495 92.6 123.495 99.5Z" fill="#1ABCFE"/>
</g>
<defs>
<clipPath id="clip0_27_3">
<rect width="46.5" height="75" fill="white" transform="translate(77 62)"/>
</clipPath>
</defs>
</svg>
