<svg width="200" height="200" viewBox="0 0 200 200" fill="none" xmlns="http://www.w3.org/2000/svg">
<g clip-path="url(#clip0_303_2)">
<path d="M30.4512 87.7536C30.1299 87.7536 30.0496 87.5919 30.2102 87.3494L31.8972 85.1669C32.0578 84.9244 32.4595 84.7627 32.7808 84.7627H61.459C61.7803 84.7627 61.8607 85.0052 61.7 85.2477L60.3344 87.3494C60.1737 87.5919 59.772 87.8344 59.5311 87.8344L30.4512 87.7536Z" fill="#00ACD7"/>
<path d="M18.3213 95.1903C18 95.1903 17.9197 95.0287 18.0803 94.7862L19.7673 92.6036C19.9279 92.3611 20.3296 92.1995 20.6509 92.1995H57.2819C57.6032 92.1995 57.7639 92.442 57.6835 92.6845L57.0409 94.6245C56.9606 94.9478 56.6392 95.1095 56.3179 95.1095L18.3213 95.1903Z" fill="#00ACD7"/>
<path d="M37.7615 102.627C37.4402 102.627 37.3599 102.385 37.5205 102.142L38.6452 100.121C38.8058 99.8787 39.1271 99.6362 39.4485 99.6362H55.5147C55.836 99.6362 55.9967 99.8787 55.9967 100.202L55.836 102.142C55.836 102.465 55.5147 102.708 55.2737 102.708L37.7615 102.627Z" fill="#00ACD7"/>
<path d="M121.145 86.2985C116.084 87.5919 112.63 88.5619 107.65 89.8553C106.445 90.1786 106.364 90.2594 105.32 89.0469C104.115 87.6727 103.231 86.7836 101.544 85.9752C96.4835 83.4693 91.5833 84.1968 87.0044 87.1877C81.5419 90.7444 78.7303 95.9987 78.8107 102.546C78.891 109.013 83.3092 114.348 89.6554 115.237C95.1179 115.965 99.6967 114.025 103.312 109.902C104.035 109.013 104.677 108.043 105.481 106.911C102.589 106.911 98.9738 106.911 89.9767 106.911C88.2897 106.911 87.8881 105.86 88.4504 104.486C89.4947 101.98 91.4227 97.777 92.5473 95.6753C92.7883 95.1903 93.3506 94.382 94.5556 94.382C98.6524 94.382 113.755 94.382 123.796 94.382C123.635 96.5645 123.635 98.747 123.314 100.93C122.43 106.75 120.262 112.085 116.727 116.773C110.943 124.452 103.392 129.222 93.8326 130.515C85.9601 131.566 78.65 130.03 72.2235 125.18C66.279 120.653 62.9051 114.671 62.0215 107.235C60.9772 98.4237 63.5478 90.5019 68.8496 83.5502C74.5531 76.0326 82.1043 71.2633 91.3423 69.5658C98.8934 68.1916 106.123 69.0808 112.63 73.5267C116.888 76.3559 119.94 80.236 121.948 84.9244C122.43 85.6519 122.109 86.056 121.145 86.2985Z" fill="#00ACD7"/>
<path d="M147.735 131C140.425 130.838 133.757 128.737 128.134 123.887C123.394 119.764 120.422 114.51 119.458 108.286C118.012 99.1512 120.503 91.0678 125.965 83.8735C131.829 76.1134 138.898 72.0717 148.458 70.3742C156.652 68.9192 164.363 69.7275 171.352 74.4967C177.698 78.8618 181.635 84.7627 182.679 92.5228C184.044 103.435 180.912 112.327 173.441 119.926C168.139 125.342 161.632 128.737 154.161 130.272C151.992 130.677 149.823 130.757 147.735 131ZM166.854 98.3429C166.773 97.292 166.773 96.4837 166.613 95.6754C165.167 87.6727 157.857 83.146 150.225 84.9244C142.754 86.6219 137.934 91.3911 136.167 98.9896C134.721 105.295 137.774 111.681 143.558 114.267C147.976 116.207 152.394 115.965 156.652 113.782C162.998 110.468 166.452 105.295 166.854 98.3429Z" fill="#00ACD7"/>
</g>
<defs>
<clipPath id="clip0_303_2">
<rect width="165" height="62" fill="white" transform="translate(18 69)"/>
</clipPath>
</defs>
</svg>
