<svg width="200" height="200" viewBox="0 0 200 200" fill="none" xmlns="http://www.w3.org/2000/svg">
<g clip-path="url(#clip0_40_16)">
<path d="M97.2869 63.7967C99.1062 62.7368 101.476 62.732 103.293 63.7967C112.438 69.0557 121.586 74.3065 130.729 79.5688C132.449 80.5547 133.599 82.5025 133.582 84.5193V116.16C133.595 118.26 132.331 120.254 130.516 121.218C121.401 126.448 112.291 131.684 103.178 136.915C101.321 137.995 98.9042 137.912 97.1052 136.743C94.3727 135.13 91.6354 133.526 88.9025 131.916C88.3441 131.577 87.7146 131.307 87.3202 130.756C87.6688 130.278 88.2921 130.218 88.7985 130.009C89.9392 129.64 90.9868 129.048 92.0347 128.473C92.2996 128.288 92.6231 128.359 92.8771 128.524C95.2138 129.888 97.5299 131.291 99.8744 132.641C100.375 132.935 100.881 132.545 101.309 132.303C110.253 127.158 119.208 122.032 128.151 116.886C128.482 116.723 128.666 116.365 128.639 115.996C128.645 105.558 128.64 95.119 128.642 84.6815C128.68 84.2624 128.441 83.877 128.069 83.7055C118.986 78.4993 109.907 73.2852 100.826 68.0778C100.669 67.9677 100.482 67.9086 100.291 67.9083C100.1 67.9081 99.9137 67.9666 99.756 68.0762C90.6745 73.2852 81.5977 78.5041 72.5161 83.71C72.145 83.8818 71.896 84.2608 71.9402 84.6815C71.9417 95.119 71.9402 105.558 71.9402 115.997C71.9244 116.178 71.9633 116.359 72.0516 116.516C72.1399 116.673 72.2734 116.798 72.4341 116.876C74.8575 118.275 77.2841 119.663 79.7091 121.057C81.0753 121.806 82.7527 122.25 84.2579 121.677C85.5861 121.192 86.5172 119.813 86.4919 118.377C86.5044 108.001 86.4856 97.6225 86.5013 87.2475C86.4681 86.7868 86.8974 86.4063 87.3375 86.4496C88.5019 86.4416 89.6679 86.4336 90.8323 86.4528C91.3184 86.4416 91.6529 86.9376 91.5928 87.4017C91.5881 97.844 91.6053 108.287 91.5849 118.729C91.5881 121.512 90.4647 124.54 87.9354 125.902C84.8194 127.545 80.9681 127.196 77.8898 125.621C75.2249 124.267 72.6818 122.67 70.0642 121.219C68.2451 120.261 66.9874 118.259 67.0002 116.16V84.5193C66.9811 82.4608 68.1772 80.4775 69.9505 79.506C79.0637 74.2717 88.1753 69.0334 97.2869 63.7967Z" fill="#8CC84B"/>
<path d="M105.237 85.7142C109.212 85.4538 113.467 85.56 117.043 87.5528C119.813 89.0799 121.348 92.285 121.397 95.4161C121.319 95.8384 120.886 96.0714 120.489 96.0424C119.336 96.0408 118.183 96.0584 117.03 96.0344C116.54 96.0536 116.256 95.5945 116.195 95.1544C115.863 93.6562 115.061 92.1725 113.675 91.4499C111.548 90.3661 109.082 90.4206 106.763 90.4432C105.07 90.5347 103.249 90.6839 101.815 91.6972C100.714 92.4647 100.379 94.0142 100.772 95.2621C101.143 96.1581 102.159 96.4472 102.991 96.7137C107.781 97.9887 112.856 97.8618 117.555 99.5397C119.5 100.224 121.403 101.554 122.069 103.626C122.94 106.405 122.558 109.725 120.616 111.956C119.041 113.791 116.747 114.79 114.459 115.333C111.416 116.023 108.257 116.041 105.166 115.734C102.26 115.397 99.2355 114.62 96.9918 112.604C95.0733 110.909 94.1362 108.267 94.2292 105.717C94.2514 105.287 94.6727 104.987 95.078 105.022C96.2393 105.012 97.4005 105.009 98.5618 105.024C99.0257 104.99 99.3696 105.398 99.3934 105.843C99.6076 107.27 100.135 108.768 101.358 109.614C103.718 111.164 106.679 111.058 109.382 111.101C111.621 111 114.134 110.97 115.961 109.464C116.925 108.605 117.211 107.167 116.95 105.931C116.668 104.887 115.595 104.401 114.674 104.083C109.945 102.56 104.813 103.113 100.13 101.391C98.2289 100.707 96.3906 99.4145 95.6602 97.4267C94.641 94.6134 95.108 91.1336 97.2537 88.9786C99.3458 86.835 102.366 86.0094 105.237 85.714V85.7142Z" fill="#8CC84B"/>
</g>
<defs>
<clipPath id="clip0_40_16">
<rect width="200" height="200" fill="white"/>
</clipPath>
</defs>
</svg>
