<svg width="200" height="200" viewBox="0 0 200 200" fill="none" xmlns="http://www.w3.org/2000/svg">
<g clip-path="url(#clip0_102_8)">
<path d="M67.3229 81.5537H90.7617V83.4167H69.4715V97.4378H89.4921V99.3008H69.4715V114.695H91.0059V116.558H67.3229V81.5537ZM92.8615 81.5537H95.3518L106.388 96.9476L117.668 81.5537L133.01 62L107.804 98.5654L120.793 116.558H118.205L106.388 100.183L94.5217 116.558H91.9825L105.069 98.5654L92.8615 81.5537ZM121.72 83.4167V81.5537H148.431V83.4167H136.126V116.558H133.977V83.4167H121.72ZM38 81.5537H40.6857L77.7199 136.972L62.4154 116.558L40.2462 84.2011L40.1486 116.558H38V81.5537ZM148.214 114.132C147.776 114.132 147.446 113.792 147.446 113.353C147.446 112.913 147.776 112.573 148.214 112.573C148.659 112.573 148.983 112.913 148.983 113.353C148.983 113.792 148.659 114.132 148.214 114.132ZM150.326 112.081H151.475C151.491 112.704 151.946 113.123 152.615 113.123C153.362 113.123 153.785 112.673 153.785 111.83V106.493H154.956V111.835C154.956 113.353 154.078 114.227 152.625 114.227C151.261 114.227 150.326 113.379 150.326 112.081ZM156.487 112.013H157.647C157.746 112.73 158.447 113.185 159.455 113.185C160.396 113.185 161.086 112.699 161.086 112.029C161.086 111.453 160.647 111.108 159.649 110.872L158.677 110.637C157.313 110.318 156.691 109.659 156.691 108.549C156.691 107.204 157.788 106.31 159.434 106.31C160.965 106.31 162.084 107.204 162.152 108.476H161.012C160.903 107.78 160.296 107.346 159.419 107.346C158.494 107.346 157.877 107.79 157.877 108.471C157.877 109.01 158.274 109.318 159.257 109.549L160.087 109.753C161.634 110.114 162.272 110.742 162.272 111.877C162.272 113.321 161.154 114.227 159.366 114.227C157.694 114.227 156.571 113.363 156.487 112.013Z" fill="black"/>
</g>
<defs>
<clipPath id="clip0_102_8">
<rect width="124.272" height="75" fill="white" transform="translate(38 62)"/>
</clipPath>
</defs>
</svg>
